<svg xmlns="http://www.w3.org/2000/svg" viewBox="0 0 300 300" xml:space="preserve"><path fill="#8EC0D6" d="M279.465 155.394c0 8.937-7.244 16.183-16.183 16.183H36.718c-8.934 0-16.183-7.246-16.183-16.183s7.249-16.183 16.183-16.183h226.563c8.94 0 16.184 7.247 16.184 16.183z"/><path fill="#A9D2E0" d="M31.324 155.394c0-8.937 7.249-16.183 16.183-16.183H36.718c-8.934 0-16.183 7.246-16.183 16.183s7.249 16.183 16.183 16.183h10.789c-8.934 0-16.183-7.246-16.183-16.183z"/><path fill="#9AE8CE" d="M144.606 155.394a5.393 5.393 0 0 1-5.394 5.394c-2.981 0-5.394-2.416-5.394-5.394S136.23 150 139.211 150a5.394 5.394 0 0 1 5.395 5.394z"/><path fill="#AEF4DB" d="M139.211 155.394c0-1.975 1.112-3.63 2.697-4.567-.806-.479-1.691-.827-2.697-.827-2.981 0-5.394 2.416-5.394 5.394s2.413 5.394 5.394 5.394c1.006 0 1.891-.348 2.697-.827-1.585-.937-2.697-2.591-2.697-4.567z"/><path fill="#9AE8CE" d="M166.183 155.394a5.393 5.393 0 0 1-5.394 5.394c-2.982 0-5.394-2.416-5.394-5.394a5.393 5.393 0 1 1 10.788 0z"/><path fill="#AEF4DB" d="M160.789 155.394c0-1.975 1.112-3.63 2.697-4.567-.806-.479-1.691-.827-2.697-.827-2.982 0-5.394 2.416-5.394 5.394s2.413 5.394 5.394 5.394c1.006 0 1.891-.348 2.697-.827-1.586-.937-2.697-2.591-2.697-4.567z"/><path fill="#8EC0D6" d="M150 139.211V31.324c0-5.958-4.831-10.789-10.789-10.789-5.958 0-10.789 4.831-10.789 10.789v107.887H150z"/><path fill="#A9D2E0" d="M144.606 22.031c-1.591-.927-3.419-1.496-5.394-1.496-5.958 0-10.789 4.831-10.789 10.789v107.887h10.789V31.324c-.001-3.983 2.18-7.423 5.394-9.293z"/><path fill="#8EC0D6" d="M171.577 139.211V31.324c0-5.958-4.831-10.789-10.789-10.789-5.958 0-10.789 4.831-10.789 10.789v107.887h21.578z"/><path fill="#9AE8CE" d="M42.113 171.577v98.653a9.236 9.236 0 0 0 9.235 9.235h194.729c5.1 0 11.811-4.135 11.811-9.235v-98.653H42.113zm59.338 75.521c0 5.958-4.831 10.789-10.789 10.789-5.958 0-10.789-4.831-10.789-10.789v-43.155c0-5.958 4.831-10.789 10.789-10.789 5.958 0 10.789 4.831 10.789 10.789v43.155zm59.338 0c0 5.958-4.831 10.789-10.789 10.789s-10.789-4.831-10.789-10.789v-43.155c0-5.958 4.831-10.789 10.789-10.789s10.789 4.831 10.789 10.789v43.155zm59.338 0c0 5.958-4.831 10.789-10.789 10.789-5.958 0-10.789-4.831-10.789-10.789v-43.155c0-5.958 4.831-10.789 10.789-10.789 5.958 0 10.789 4.831 10.789 10.789v43.155z"/><path fill="#AEF4DB" d="M52.902 270.23v-98.653H42.113v98.653a9.236 9.236 0 0 0 9.235 9.235h10.789a9.236 9.236 0 0 1-9.235-9.235z"/><circle transform="rotate(-45.001 230.916 79.876)" fill="#FFDA88" cx="230.915" cy="79.873" r="37.761"/><path fill="#FFE2A9" d="M203.944 79.873c0-19.02 14.076-34.708 32.366-37.331-1.765-.253-3.556-.429-5.394-.429-20.856 0-37.76 16.905-37.76 37.761s16.905 37.76 37.76 37.76c1.838 0 3.63-.176 5.394-.429-18.29-2.624-32.366-18.312-32.366-37.332z"/><path fill="#8EC0D6" d="M246.529 88.249a5.395 5.395 0 0 0-7.238-2.412l-2.981 1.491V63.69a5.393 5.393 0 0 0-5.394-5.394 5.393 5.393 0 0 0-5.394 5.394v23.637l-2.981-1.491a5.397 5.397 0 0 0-7.238 2.412 5.394 5.394 0 0 0 2.412 7.238l10.789 5.394c.048.024.1.013.148.035.695.324 1.448.535 2.265.535.817 0 1.57-.211 2.265-.535.048-.021.1-.011.148-.035l10.789-5.394a5.393 5.393 0 0 0 2.41-7.237z"/><path fill="#A9D2E0" d="M166.183 22.031c-1.591-.927-3.419-1.496-5.394-1.496-5.958 0-10.789 4.831-10.789 10.789v107.887h10.789V31.324c0-3.983 2.181-7.423 5.394-9.293z"/><g><path fill="#161616" d="M263.282 176.972H36.718c-11.898 0-21.577-9.68-21.577-21.577s9.68-21.577 21.577-21.577h226.563c11.9 0 21.577 9.68 21.577 21.577s-9.676 21.577-21.576 21.577zM36.718 144.606c-5.95 0-10.789 4.839-10.789 10.789s4.839 10.789 10.789 10.789h226.563c5.947 0 10.789-4.839 10.789-10.789s-4.841-10.789-10.789-10.789H36.718z"/><path fill="#161616" d="M144.606 155.394a5.393 5.393 0 0 1-5.394 5.394c-2.981 0-5.394-2.416-5.394-5.394S136.23 150 139.211 150a5.394 5.394 0 0 1 5.395 5.394zM166.183 155.394a5.393 5.393 0 0 1-5.394 5.394c-2.982 0-5.394-2.416-5.394-5.394a5.393 5.393 0 1 1 10.788 0zM150 144.606h-21.577a5.392 5.392 0 0 1-5.394-5.394V31.324c0-8.924 7.259-16.183 16.183-16.183s16.183 7.259 16.183 16.183v107.887a5.394 5.394 0 0 1-5.395 5.395zm-16.183-10.789h10.789V31.324a5.4 5.4 0 0 0-5.394-5.394 5.4 5.4 0 0 0-5.394 5.394v102.493zM246.076 284.859H51.347c-8.065 0-14.629-6.564-14.629-14.629v-55.498a5.394 5.394 0 0 1 10.788 0v55.498a3.844 3.844 0 0 0 3.84 3.84h194.729c2.887 0 6.416-2.571 6.416-3.84v-93.258H47.507v16.183a5.394 5.394 0 0 1-10.788 0v-21.577a5.394 5.394 0 0 1 5.394-5.394h215.774a5.392 5.392 0 0 1 5.394 5.394v98.652c.001 8.239-9.25 14.629-17.205 14.629zm-36.738-21.577c-8.924 0-16.183-7.259-16.183-16.183v-43.155c0-8.924 7.259-16.183 16.183-16.183s16.183 7.259 16.183 16.183v43.155c0 8.923-7.259 16.183-16.183 16.183zm0-64.733a5.4 5.4 0 0 0-5.394 5.394v43.155a5.4 5.4 0 0 0 5.394 5.394 5.4 5.4 0 0 0 5.394-5.394v-43.155a5.4 5.4 0 0 0-5.394-5.394zM150 263.282c-8.924 0-16.183-7.259-16.183-16.183v-43.155c0-8.924 7.259-16.183 16.183-16.183s16.183 7.259 16.183 16.183v43.155c0 8.923-7.259 16.183-16.183 16.183zm0-64.733a5.4 5.4 0 0 0-5.394 5.394v43.155a5.4 5.4 0 0 0 5.394 5.394 5.4 5.4 0 0 0 5.394-5.394v-43.155a5.4 5.4 0 0 0-5.394-5.394zm-59.338 64.733c-8.924 0-16.183-7.259-16.183-16.183v-43.155c0-8.924 7.259-16.183 16.183-16.183s16.183 7.259 16.183 16.183v43.155c0 8.923-7.259 16.183-16.183 16.183zm0-64.733a5.401 5.401 0 0 0-5.394 5.394v43.155a5.401 5.401 0 0 0 5.394 5.394 5.401 5.401 0 0 0 5.394-5.394v-43.155a5.401 5.401 0 0 0-5.394-5.394zM230.915 123.028c-23.795 0-43.155-19.36-43.155-43.155s19.36-43.155 43.155-43.155 43.155 19.36 43.155 43.155c0 23.796-19.359 43.155-43.155 43.155zm0-75.521c-17.848 0-32.366 14.518-32.366 32.366s14.518 32.366 32.366 32.366 32.366-14.518 32.366-32.366c.001-17.847-14.518-32.366-32.366-32.366z"/><path fill="#161616" d="M246.529 88.249a5.395 5.395 0 0 0-7.238-2.412l-2.981 1.491V63.69a5.393 5.393 0 0 0-5.394-5.394 5.393 5.393 0 0 0-5.394 5.394v23.637l-2.981-1.491a5.397 5.397 0 0 0-7.238 2.412 5.394 5.394 0 0 0 2.412 7.238l10.789 5.394c.048.024.1.013.148.035.695.324 1.448.535 2.265.535.817 0 1.57-.211 2.265-.535.048-.021.1-.011.148-.035l10.789-5.394a5.393 5.393 0 0 0 2.41-7.237zM171.577 144.606H150a5.392 5.392 0 0 1-5.394-5.394V31.324c0-8.924 7.259-16.183 16.183-16.183s16.183 7.259 16.183 16.183v10.789a5.393 5.393 0 0 1-5.394 5.394 5.392 5.392 0 0 1-5.394-5.394V31.324a5.4 5.4 0 0 0-5.394-5.394 5.4 5.4 0 0 0-5.394 5.394v102.493h10.789V63.69a5.393 5.393 0 0 1 5.394-5.394 5.392 5.392 0 0 1 5.394 5.394v75.521a5.395 5.395 0 0 1-5.396 5.395z"/></g></svg>